<svg width="260" height="45" viewBox="0 0 260 45" fill="none" xmlns="http://www.w3.org/2000/svg">
<path d="M9.505 23.114C9.505 21.2653 9.70167 19.4757 10.095 17.745C10.5277 16.0143 11.1963 14.4803 12.101 13.143C13.0057 11.7663 14.1857 10.6847 15.641 9.898C17.0963 9.072 18.8663 8.659 20.951 8.659C23.0357 8.659 24.8057 9.072 26.261 9.898C27.7163 10.6847 28.8963 11.7663 29.801 13.143C30.7057 14.4803 31.3547 16.0143 31.748 17.745C32.1807 19.4757 32.397 21.2653 32.397 23.114C32.397 24.884 32.1807 26.6147 31.748 28.306C31.3547 29.958 30.7057 31.4527 29.801 32.79C28.8963 34.1273 27.7163 35.209 26.261 36.035C24.8057 36.8217 23.0357 37.215 20.951 37.215C18.8663 37.215 17.0963 36.8217 15.641 36.035C14.1857 35.209 13.0057 34.1273 12.101 32.79C11.1963 31.4527 10.5277 29.958 10.095 28.306C9.70167 26.6147 9.505 24.884 9.505 23.114ZM0.242 23.114C0.242 26.182 0.714 29.0533 1.658 31.728C2.602 34.3633 3.959 36.6643 5.729 38.631C7.499 40.5977 9.66233 42.1513 12.219 43.292C14.815 44.3933 17.7257 44.944 20.951 44.944C24.2157 44.944 27.1263 44.3933 29.683 43.292C32.2397 42.1513 34.403 40.5977 36.173 38.631C37.943 36.6643 39.3 34.3633 40.244 31.728C41.188 29.0533 41.66 26.182 41.66 23.114C41.66 19.9673 41.188 17.0567 40.244 14.382C39.3 11.668 37.943 9.308 36.173 7.302C34.403 5.296 32.2397 3.72266 29.683 2.582C27.1263 1.44133 24.2157 0.871 20.951 0.871C17.7257 0.871 14.815 1.44133 12.219 2.582C9.66233 3.72266 7.499 5.296 5.729 7.302C3.959 9.308 2.602 11.668 1.658 14.382C0.714 17.0567 0.242 19.9673 0.242 23.114ZM70.4119 44V13.497H62.0339V29.486C62.0339 32.5933 61.5226 34.8353 60.4999 36.212C59.4772 37.5493 57.8252 38.218 55.5439 38.218C53.5379 38.218 52.1416 37.6083 51.3549 36.389C50.5682 35.1303 50.1749 33.2423 50.1749 30.725V13.497H41.7969V32.259C41.7969 34.147 41.9542 35.8777 42.2689 37.451C42.6229 38.985 43.2129 40.3027 44.0389 41.404C44.8649 42.466 45.9859 43.292 47.4019 43.882C48.8572 44.472 50.7059 44.767 52.9479 44.767C54.7179 44.767 56.4486 44.3737 58.1399 43.587C59.8312 42.8003 61.2079 41.522 62.2699 39.752H62.4469V44H70.4119ZM71.4605 13.497V44H79.8385V30.253C79.8385 28.8763 79.9762 27.598 80.2515 26.418C80.5269 25.238 80.9792 24.2153 81.6085 23.35C82.2772 22.4453 83.1425 21.7373 84.2045 21.226C85.2665 20.7147 86.5645 20.459 88.0985 20.459C88.6099 20.459 89.1409 20.4983 89.6915 20.577C90.2422 20.6163 90.7142 20.6753 91.1075 20.754V12.966C90.4389 12.7693 89.8292 12.671 89.2785 12.671C88.2165 12.671 87.1939 12.8283 86.2105 13.143C85.2272 13.4577 84.3029 13.91 83.4375 14.5C82.5722 15.0507 81.8052 15.739 81.1365 16.565C80.4679 17.3517 79.9369 18.217 79.5435 19.161H79.4255V13.497H71.4605ZM95.4791 28.778C95.4791 27.5587 95.5971 26.359 95.8331 25.179C96.0691 23.999 96.4624 22.9567 97.0131 22.052C97.6031 21.1473 98.3701 20.4197 99.3141 19.869C100.258 19.279 101.438 18.984 102.854 18.984C104.27 18.984 105.45 19.279 106.394 19.869C107.377 20.4197 108.144 21.1473 108.695 22.052C109.285 22.9567 109.698 23.999 109.934 25.179C110.17 26.359 110.288 27.5587 110.288 28.778C110.288 29.9973 110.17 31.197 109.934 32.377C109.698 33.5177 109.285 34.56 108.695 35.504C108.144 36.4087 107.377 37.1363 106.394 37.687C105.45 38.2377 104.27 38.513 102.854 38.513C101.438 38.513 100.258 38.2377 99.3141 37.687C98.3701 37.1363 97.6031 36.4087 97.0131 35.504C96.4624 34.56 96.0691 33.5177 95.8331 32.377C95.5971 31.197 95.4791 29.9973 95.4791 28.778ZM87.1011 28.778C87.1011 31.2167 87.4747 33.4193 88.2221 35.386C88.9694 37.3527 90.0314 39.044 91.4081 40.46C92.7847 41.8367 94.4367 42.8987 96.3641 43.646C98.2914 44.3933 100.455 44.767 102.854 44.767C105.253 44.767 107.417 44.3933 109.344 43.646C111.311 42.8987 112.982 41.8367 114.359 40.46C115.736 39.044 116.798 37.3527 117.545 35.386C118.292 33.4193 118.666 31.2167 118.666 28.778C118.666 26.3393 118.292 24.1367 117.545 22.17C116.798 20.164 115.736 18.4727 114.359 17.096C112.982 15.68 111.311 14.5983 109.344 13.851C107.417 13.0643 105.253 12.671 102.854 12.671C100.455 12.671 98.2914 13.0643 96.3641 13.851C94.4367 14.5983 92.7847 15.68 91.4081 17.096C90.0314 18.4727 88.9694 20.164 88.2221 22.17C87.4747 24.1367 87.1011 26.3393 87.1011 28.778Z" fill="white"/>
<path d="M128.951 18.925V9.072H137.624C138.45 9.072 139.237 9.15067 139.984 9.308C140.771 9.426 141.459 9.662 142.049 10.016C142.639 10.37 143.111 10.8617 143.465 11.491C143.819 12.1203 143.996 12.9267 143.996 13.91C143.996 15.68 143.465 16.9583 142.403 17.745C141.341 18.5317 139.984 18.925 138.332 18.925H128.951ZM119.688 1.874V44H140.102C141.99 44 143.819 43.764 145.589 43.292C147.399 42.82 148.992 42.0923 150.368 41.109C151.784 40.1257 152.905 38.867 153.731 37.333C154.557 35.7597 154.97 33.911 154.97 31.787C154.97 29.1517 154.321 26.9097 153.023 25.061C151.765 23.173 149.837 21.8553 147.241 21.108C149.129 20.2033 150.545 19.043 151.489 17.627C152.473 16.211 152.964 14.441 152.964 12.317C152.964 10.3503 152.63 8.69833 151.961 7.361C151.332 6.02366 150.427 4.96167 149.247 4.175C148.067 3.349 146.651 2.759 144.999 2.405C143.347 2.051 141.518 1.874 139.512 1.874H119.688ZM128.951 36.802V25.238H139.04C141.046 25.238 142.659 25.71 143.878 26.654C145.098 27.5587 145.707 29.0927 145.707 31.256C145.707 32.3573 145.511 33.262 145.117 33.97C144.763 34.678 144.272 35.2483 143.642 35.681C143.013 36.0743 142.285 36.3693 141.459 36.566C140.633 36.7233 139.768 36.802 138.863 36.802H128.951ZM162.469 28.778C162.469 27.5587 162.587 26.359 162.823 25.179C163.059 23.999 163.453 22.9567 164.003 22.052C164.593 21.1473 165.36 20.4197 166.304 19.869C167.248 19.279 168.428 18.984 169.844 18.984C171.26 18.984 172.44 19.279 173.384 19.869C174.368 20.4197 175.135 21.1473 175.685 22.052C176.275 22.9567 176.688 23.999 176.924 25.179C177.16 26.359 177.278 27.5587 177.278 28.778C177.278 29.9973 177.16 31.197 176.924 32.377C176.688 33.5177 176.275 34.56 175.685 35.504C175.135 36.4087 174.368 37.1363 173.384 37.687C172.44 38.2377 171.26 38.513 169.844 38.513C168.428 38.513 167.248 38.2377 166.304 37.687C165.36 37.1363 164.593 36.4087 164.003 35.504C163.453 34.56 163.059 33.5177 162.823 32.377C162.587 31.197 162.469 29.9973 162.469 28.778ZM154.091 28.778C154.091 31.2167 154.465 33.4193 155.212 35.386C155.96 37.3527 157.022 39.044 158.398 40.46C159.775 41.8367 161.427 42.8987 163.354 43.646C165.282 44.3933 167.445 44.767 169.844 44.767C172.244 44.767 174.407 44.3933 176.334 43.646C178.301 42.8987 179.973 41.8367 181.349 40.46C182.726 39.044 183.788 37.3527 184.535 35.386C185.283 33.4193 185.656 31.2167 185.656 28.778C185.656 26.3393 185.283 24.1367 184.535 22.17C183.788 20.164 182.726 18.4727 181.349 17.096C179.973 15.68 178.301 14.5983 176.334 13.851C174.407 13.0643 172.244 12.671 169.844 12.671C167.445 12.671 165.282 13.0643 163.354 13.851C161.427 14.5983 159.775 15.68 158.398 17.096C157.022 18.4727 155.96 20.164 155.212 22.17C154.465 24.1367 154.091 26.3393 154.091 28.778ZM185.794 13.497V44H194.172V30.253C194.172 28.8763 194.309 27.598 194.585 26.418C194.86 25.238 195.312 24.2153 195.942 23.35C196.61 22.4453 197.476 21.7373 198.538 21.226C199.6 20.7147 200.898 20.459 202.432 20.459C202.943 20.459 203.474 20.4983 204.025 20.577C204.575 20.6163 205.047 20.6753 205.441 20.754V12.966C204.772 12.7693 204.162 12.671 203.612 12.671C202.55 12.671 201.527 12.8283 200.544 13.143C199.56 13.4577 198.636 13.91 197.771 14.5C196.905 15.0507 196.138 15.739 195.47 16.565C194.801 17.3517 194.27 18.217 193.877 19.161H193.759V13.497H185.794ZM209.812 28.778C209.812 27.5587 209.93 26.359 210.166 25.179C210.402 23.999 210.796 22.9567 211.346 22.052C211.936 21.1473 212.703 20.4197 213.647 19.869C214.591 19.279 215.771 18.984 217.187 18.984C218.603 18.984 219.783 19.279 220.727 19.869C221.711 20.4197 222.478 21.1473 223.028 22.052C223.618 22.9567 224.031 23.999 224.267 25.179C224.503 26.359 224.621 27.5587 224.621 28.778C224.621 29.9973 224.503 31.197 224.267 32.377C224.031 33.5177 223.618 34.56 223.028 35.504C222.478 36.4087 221.711 37.1363 220.727 37.687C219.783 38.2377 218.603 38.513 217.187 38.513C215.771 38.513 214.591 38.2377 213.647 37.687C212.703 37.1363 211.936 36.4087 211.346 35.504C210.796 34.56 210.402 33.5177 210.166 32.377C209.93 31.197 209.812 29.9973 209.812 28.778ZM201.434 28.778C201.434 31.2167 201.808 33.4193 202.555 35.386C203.303 37.3527 204.365 39.044 205.741 40.46C207.118 41.8367 208.77 42.8987 210.697 43.646C212.625 44.3933 214.788 44.767 217.187 44.767C219.587 44.767 221.75 44.3933 223.677 43.646C225.644 42.8987 227.316 41.8367 228.692 40.46C230.069 39.044 231.131 37.3527 231.878 35.386C232.626 33.4193 232.999 31.2167 232.999 28.778C232.999 26.3393 232.626 24.1367 231.878 22.17C231.131 20.164 230.069 18.4727 228.692 17.096C227.316 15.68 225.644 14.5983 223.677 13.851C221.75 13.0643 219.587 12.671 217.187 12.671C214.788 12.671 212.625 13.0643 210.697 13.851C208.77 14.5983 207.118 15.68 205.741 17.096C204.365 18.4727 203.303 20.164 202.555 22.17C201.808 24.1367 201.434 26.3393 201.434 28.778ZM239.627 34.088H231.662C231.74 36.1333 232.193 37.8443 233.019 39.221C233.884 40.5583 234.966 41.64 236.264 42.466C237.601 43.292 239.115 43.882 240.807 44.236C242.498 44.59 244.229 44.767 245.999 44.767C247.729 44.767 249.421 44.59 251.073 44.236C252.764 43.9213 254.259 43.351 255.557 42.525C256.855 41.699 257.897 40.6173 258.684 39.28C259.51 37.9033 259.923 36.212 259.923 34.206C259.923 32.79 259.647 31.61 259.097 30.666C258.546 29.6827 257.818 28.8763 256.914 28.247C256.009 27.5783 254.967 27.0473 253.787 26.654C252.646 26.2607 251.466 25.9263 250.247 25.651C249.067 25.3757 247.906 25.12 246.766 24.884C245.625 24.648 244.602 24.3923 243.698 24.117C242.832 23.8023 242.124 23.409 241.574 22.937C241.023 22.465 240.748 21.8553 240.748 21.108C240.748 20.4787 240.905 19.987 241.22 19.633C241.534 19.2397 241.908 18.9447 242.341 18.748C242.813 18.5513 243.324 18.4333 243.875 18.394C244.425 18.3153 244.937 18.276 245.409 18.276C246.903 18.276 248.201 18.571 249.303 19.161C250.404 19.7117 251.014 20.7933 251.132 22.406H259.097C258.939 20.518 258.448 18.9643 257.622 17.745C256.835 16.4863 255.832 15.4833 254.613 14.736C253.393 13.9887 251.997 13.4577 250.424 13.143C248.89 12.8283 247.297 12.671 245.645 12.671C243.993 12.671 242.38 12.8283 240.807 13.143C239.233 13.4183 237.817 13.9297 236.559 14.677C235.3 15.385 234.277 16.3683 233.491 17.627C232.743 18.8857 232.37 20.4983 232.37 22.465C232.37 23.8023 232.645 24.943 233.196 25.887C233.746 26.7917 234.474 27.5587 235.379 28.188C236.283 28.778 237.306 29.2697 238.447 29.663C239.627 30.017 240.826 30.3317 242.046 30.607C245.035 31.2363 247.356 31.8657 249.008 32.495C250.699 33.1243 251.545 34.0683 251.545 35.327C251.545 36.0743 251.368 36.7037 251.014 37.215C250.66 37.687 250.207 38.0803 249.657 38.395C249.145 38.6703 248.555 38.8867 247.887 39.044C247.257 39.162 246.648 39.221 246.058 39.221C245.232 39.221 244.425 39.1227 243.639 38.926C242.891 38.7293 242.223 38.4343 241.633 38.041C241.043 37.6083 240.551 37.0773 240.158 36.448C239.804 35.7793 239.627 34.9927 239.627 34.088Z" fill="#FF439D"/>
</svg>
